<svg version="1.1" xmlns="http://www.w3.org/2000/svg" viewBox="0 0 878 596.5999603271484" width="878" height="596.5999603271484">
  <!-- svg-source:excalidraw -->
  
  <defs>
    <style>
      @font-face {
        font-family: "Virgil";
        src: url("https://excalidraw.com/Virgil.woff2");
      }
      @font-face {
        font-family: "Cascadia";
        src: url("https://excalidraw.com/Cascadia.woff2");
      }
    </style>
  </defs>
  <rect x="0" y="0" width="878" height="596.5999603271484" fill="#ffffff"></rect><g transform="translate(34.800079345703125 10) rotate(0 386 99)"><text x="0" y="17.75" font-family="Virgil, Segoe UI Emoji" font-size="20px" fill="#000000" text-anchor="start" style="white-space: pre;" direction="ltr">Step 1 :</text><text x="0" y="42.5" font-family="Virgil, Segoe UI Emoji" font-size="20px" fill="#000000" text-anchor="start" style="white-space: pre;" direction="ltr">Student credentials needed to be added</text><text x="0" y="67.25" font-family="Virgil, Segoe UI Emoji" font-size="20px" fill="#000000" text-anchor="start" style="white-space: pre;" direction="ltr">Step 2:</text><text x="0" y="92" font-family="Virgil, Segoe UI Emoji" font-size="20px" fill="#000000" text-anchor="start" style="white-space: pre;" direction="ltr">Questions will be given one by one in selected format for the screen</text><text x="0" y="116.75" font-family="Virgil, Segoe UI Emoji" font-size="20px" fill="#000000" text-anchor="start" style="white-space: pre;" direction="ltr">Step 3:</text><text x="0" y="141.5" font-family="Virgil, Segoe UI Emoji" font-size="20px" fill="#000000" text-anchor="start" style="white-space: pre;" direction="ltr">Final Submit</text><text x="0" y="166.25" font-family="Virgil, Segoe UI Emoji" font-size="20px" fill="#000000" text-anchor="start" style="white-space: pre;" direction="ltr">Step 4:</text><text x="0" y="191" font-family="Virgil, Segoe UI Emoji" font-size="20px" fill="#000000" text-anchor="start" style="white-space: pre;" direction="ltr">Result gets updated in storage beside the entered email id of the candidate</text></g><g stroke-linecap="round" transform="translate(10 306.19996643066406) rotate(0 206.39999389648438 139.60000610351562)"><path d="M-0.77 -0.38 C115.85 0.65, 233.7 -0.59, 413.56 -0.03 M0.22 -0.49 C133.92 1.12, 267.12 0.8, 412.94 0.29 M411.56 0.9 C415.07 73.73, 413.66 147.89, 413.36 279.68 M413.01 0.47 C413.48 59.56, 412.5 118.59, 412.71 279.33 M411.78 280.15 C288.16 276.84, 161.71 277.24, 0.82 279.27 M412.91 279.43 C323.82 280.63, 235.35 279.81, -0.32 278.96 M0.6 278.93 C1.74 198.42, 0.98 119.06, 0.17 0.99 M0.58 278.69 C0 179.63, -1.14 81.75, -0.73 0.63" stroke="#000000" stroke-width="1" fill="none"></path></g><g stroke-linecap="round" transform="translate(455.20001220703125 307.3999481201172) rotate(0 206.39999389648438 139.60000610351562)"><path d="M-0.78 1.07 C89.63 1.94, 179.21 0.16, 413.16 -0.09 M-0.24 -0.1 C141.24 1.02, 281.95 0.84, 412.5 0.45 M413.66 0.77 C414.69 64.31, 414.44 128.97, 413.57 278.65 M412.81 -0.47 C411.66 109.92, 411.55 221.63, 412.87 279.18 M412.92 278.77 C268.16 278.49, 124.78 278.39, -0.12 280.2 M412.81 279.15 C257.14 278.86, 101.99 278.24, 0.27 278.98 M1.14 280.15 C0.68 191.37, -0.62 101.35, 0.81 1.06 M0.1 279.51 C-0.33 176.86, -0.34 75.53, -0.5 0.37" stroke="#000000" stroke-width="1" fill="none"></path></g><g stroke-linecap="round" transform="translate(222.79998779296875 401.3999481201172) rotate(0 77.20001220703125 17.5)"><path d="M0 0 C0 0, 0 0, 0 0 M0 0 C0 0, 0 0, 0 0 M-0.74 6.88 C0.96 3.75, 4.22 1.2, 4.8 0.5 M-0.4 6.65 C1.54 4.43, 2.91 2.96, 4.59 0.2 M0.72 11.68 C3.94 8.53, 7.38 2.7, 11.01 0.47 M0.81 11.65 C1.98 9.52, 5.03 7.04, 10.03 0.65 M0.77 18.72 C4.28 11.23, 12.07 3.73, 15.95 1.19 M-0.61 17.97 C3.72 14.18, 8.57 8.19, 16.14 0.13 M2.1 23.59 C5.64 17.9, 10.8 9.29, 21.54 -0.71 M0.14 23.42 C8.38 15.34, 14.47 6.15, 20.38 0.77 M1.02 32 C8.73 19.98, 17 14.25, 26.57 1.98 M0.44 30.42 C8.84 20.62, 18.77 10.1, 26.42 0.98 M2.26 34.73 C8.76 25.94, 17.87 17.87, 31.65 -0.86 M0.4 35.32 C10.46 24.58, 19.49 15.57, 31.85 0.55 M5.01 37.14 C16.6 24.05, 24.15 15.37, 36.47 2.05 M6.66 35.55 C17.5 22.79, 29.18 8.31, 36.04 0.09 M10.74 35.26 C20.55 25.96, 29.39 17.9, 41.47 -0.08 M11.09 34.35 C19.3 26.25, 27.93 16.52, 41.66 -0.79 M15.57 37.31 C26.91 24.05, 36.91 13.54, 49.09 -1.51 M17.02 35.97 C26.03 25.48, 35.34 13.77, 46.75 -0.26 M20.63 36.24 C28.57 26.69, 34.3 19.16, 53.37 0.56 M22.42 36.9 C29.97 26.27, 37.18 17.02, 52.22 -0.02 M26.6 34.6 C40.53 20.86, 50.77 8.97, 57.21 0.58 M28.29 36.28 C37.63 22.56, 47.08 11.3, 57.9 -0.12 M34.15 35.31 C43.43 25.83, 51.89 16.08, 62.04 1.17 M31.96 35.47 C43.02 25.1, 51.74 14.28, 64.05 -0.72 M36.95 34.99 C48.33 24.65, 59.41 12.31, 68.98 -0.26 M37.93 34.93 C48.76 24.65, 57.56 12.43, 69.42 1.12 M42.89 34.52 C51.26 26.24, 62.16 16.86, 72.55 1 M41.94 35.49 C49.36 27.66, 57.12 18.31, 74.74 -0.34 M47.77 35.59 C57.68 26.24, 68.16 13.6, 77.86 -0.45 M48.46 36.56 C54.8 27.96, 61.97 18.59, 78.79 -0.27 M52.47 35.31 C62.67 26.03, 72.13 16.99, 86.29 0.44 M52.78 35.32 C64.11 23.19, 75.14 11.23, 85.94 -1.11 M60.61 34.7 C69.95 23.35, 81.86 9.37, 88.68 1.74 M58.48 34.97 C65.91 26.13, 74.49 17.43, 90.11 0.68 M63.82 37.31 C70.88 27.55, 78.33 22.2, 95.02 -0.93 M63.5 35.96 C72.18 28.24, 78.92 17.89, 96.4 -1.14 M71.33 33.75 C77.93 23.62, 89.39 14.14, 99.61 0.2 M69.66 36.16 C77.66 27.75, 85.5 18.13, 101.03 0.6 M75.23 36.28 C84.33 25.62, 91.26 18.49, 106.8 1.6 M74.69 36.12 C83.81 25.1, 91.43 15.21, 106.94 -1.31 M80.13 35.33 C94.2 21.22, 103.47 7.23, 112.14 -1.01 M79.77 35.26 C90.87 22.58, 102.82 9.76, 111.78 0.79 M84.34 34.13 C95.6 26.13, 101.96 16.37, 115.41 0.66 M85.54 35.14 C95.95 23.64, 106.04 12.1, 116.8 0.37 M89.57 37.2 C97.73 26.77, 107.46 18.65, 121.13 -1.7 M91.65 35.61 C102.49 21.64, 115.16 7.25, 122.17 0.21 M94.12 36.95 C105.7 22.26, 121.15 8.94, 124.95 -0.22 M96.78 36.08 C105.8 23.07, 116.57 12.18, 127.28 0.84 M102.56 34.25 C109.74 24.12, 119.37 15.79, 132.77 0.49 M102.2 35.7 C108.08 27.7, 115.91 19.14, 132.6 0.52 M106.9 36.98 C116.35 23.63, 124.57 15.27, 135.87 -0.1 M105.75 36.63 C114.9 27.58, 123.17 18.35, 136.76 -0.54 M112.32 36.56 C118.23 29.28, 126.08 19.49, 142.61 0.08 M111.42 36.19 C119.04 27.08, 125.7 19.66, 143.03 -0.97 M118.33 34.59 C125.27 24.63, 136.78 12.02, 149.63 -1.64 M117.35 36.17 C124.77 26.72, 131.79 19.68, 148.39 0 M124.45 35.34 C130.59 27.85, 140.08 15.42, 153.52 1.75 M123.38 34.94 C133.17 23.26, 143.3 12.32, 154.02 -0.28 M127.42 36.35 C136.36 26.16, 140.98 19.78, 156.06 1.92 M127.07 34.76 C134.45 27.94, 141.88 20.43, 156.41 2.67 M134.87 36.98 C140.39 28.24, 148.14 17.86, 158.52 6.62 M133.23 35.94 C140.06 26.99, 147.89 18.83, 156.47 8.57 M138.53 36.96 C142.03 28.45, 146.17 23.96, 156.76 15.8 M137.97 36.11 C143.62 29.56, 149.27 23.81, 156.54 14.14 M143.21 37.74 C145.22 31.01, 149.75 28, 156.45 21.91 M143.54 35.14 C148.51 29.39, 153.81 24.3, 156.36 20.12 M148.09 36.62 C152.73 32.23, 153.7 29.57, 158.08 26.82 M149.5 36.23 C152 31.96, 155.19 29.07, 156.85 26.18" stroke="#228be6" stroke-width="0.5" fill="none"></path><path d="M0.89 1.02 C50.45 -0.31, 103.96 -0.61, 154.49 -1.14 M0.96 -0.83 C36.6 -1.8, 73.43 -1.27, 153.55 0.87 M153.61 1.28 C154.72 10.44, 153.28 23.49, 154.13 34.25 M155.01 -0.54 C154.65 9.84, 154.64 20.63, 154.95 35.2 M155.53 33.74 C98.98 35.82, 45.38 35.59, -0.45 34.27 M154.98 35.9 C119.83 36.26, 87.94 36.12, 0.42 34 M1.28 33.93 C1.33 24.1, 1.26 15.71, -0.88 1.36 M-0.3 34.48 C0.38 26.51, -0.9 20.52, 0.03 0.16" stroke="#1864ab" stroke-width="1" fill="none"></path></g><g stroke-linecap="round" transform="translate(225.5999755859375 447.39991760253906) rotate(0 77.20001220703125 17.5)"><path d="M0 0 C0 0, 0 0, 0 0 M0 0 C0 0, 0 0, 0 0 M-0.41 6.48 C1.18 4.49, 3.69 2.13, 5.45 1.02 M0.13 6.37 C1.12 5.11, 2.33 3.32, 5.09 0.58 M0.76 10.99 C3.5 7.56, 7.88 3.44, 9.48 -0.04 M-0.05 11.43 C2.49 7.81, 6.91 4.96, 11.01 0.09 M-1.87 20.43 C6.49 12.31, 12.47 6.54, 13.72 0.33 M0.44 18.8 C5.75 12.47, 11.39 5.47, 15.53 -0.49 M-0.89 26.06 C7.18 15.12, 14.71 6.53, 19.36 -0.41 M-0.15 24.07 C6.19 18.37, 10.78 12.5, 20.64 0.58 M-1.69 31.37 C5.71 22.34, 14.61 16.89, 25.15 -0.42 M0.5 29.86 C9.12 18.86, 18.86 8.38, 26.38 0.95 M1.06 37.17 C9.99 25.21, 16.72 16.64, 31.41 1.86 M1.77 35.01 C9.32 26.19, 15.6 18.56, 30.98 0.61 M5.46 36.8 C13.05 28.55, 19.13 18.34, 37.02 0.24 M6.58 35.74 C15.81 23.1, 26.08 11.15, 35.94 1.23 M10.42 34.09 C18.32 26.76, 27.72 16.86, 41.25 -0.85 M11.08 34.47 C22.4 21.08, 34.7 9.64, 42.49 0.4 M16.07 34.75 C26.58 25.21, 33.6 17.44, 49.08 2.14 M15.77 35.06 C28.49 21.23, 40.75 7.24, 46.54 0.93 M22.33 36.83 C35.7 19.84, 47.91 7.51, 52.97 -1.78 M21.66 36.05 C30.62 26.33, 38.17 16.59, 53.2 -0.84 M27.5 37.38 C34.38 26.9, 42.46 18.29, 58.23 -1.57 M27.58 35.27 C36.38 25.41, 47.01 13.97, 57.69 0.21 M32.86 37.18 C43.46 23.47, 52.6 13.3, 64.8 -1.85 M32.39 35.32 C38.24 29.33, 45.07 21.84, 63.83 0.24 M39.85 35.89 C46.38 24.93, 53.43 15.88, 68.55 1.63 M38.79 34.63 C46.26 25.05, 55.06 15.26, 69.03 -0.21 M43.32 36.52 C52.58 28.31, 59.24 18.81, 75.12 0.37 M42.33 36.72 C49.67 28.76, 56.33 20.45, 74.74 0.02 M49.4 35.84 C59.98 21.15, 73.25 8.11, 81.24 1.59 M47.83 36.48 C54.85 27.68, 63.44 18.61, 79.42 0 M52.78 36.83 C63.7 25.07, 70.43 14.31, 84.5 -1.36 M54.39 35.49 C60 28.17, 67.3 19.29, 85 -1.02 M58.56 35.12 C72.46 21.49, 82.8 8.01, 88.69 -0.51 M59.82 36.24 C67.2 25.8, 77.01 15.04, 89.87 -0.29 M63.51 35.43 C76.12 24.62, 86.27 12.02, 97.62 1.1 M63.64 35.47 C72.76 25.9, 81.29 15.78, 95.32 0.68 M69.91 33.98 C78.75 26.08, 86.33 16.12, 100.42 1.89 M69.54 36.4 C76.29 27.9, 84.97 19, 100.55 -0.59 M74.9 34.98 C83.16 25.92, 90.84 18.47, 105.36 0.19 M74.34 36.05 C84.46 25.12, 94.57 12.82, 107.1 -1.25 M80.2 37.01 C87.4 26.83, 92.31 21.56, 113.13 -1.34 M80.45 35.52 C91.01 23.25, 102.6 11.19, 111.83 0.14 M85.52 37.49 C91.83 27.01, 97.18 22.73, 118.07 -0.52 M84.89 35.23 C97.68 23.27, 108.73 9.68, 116.75 0.65 M90.31 35.12 C103.17 23.68, 112.93 9.91, 120.66 1.02 M91.68 35.25 C101.91 23.44, 113.04 11.13, 121.23 0.52 M95.09 34.32 C107.07 23.18, 114.56 12.91, 126.23 0.6 M96.89 36.57 C102.64 27.68, 107.56 20.41, 127.31 -0.33 M103.28 35.61 C110.37 24.37, 120.1 12.68, 132.01 -0.44 M101.03 35.33 C107.4 27.94, 113.34 20.81, 132.45 -0.24 M106.49 36.14 C115.83 25.08, 126.56 9.82, 138.52 1.8 M106.09 36.2 C116.39 25.14, 124.9 13.86, 137.55 0.43 M114.33 36.07 C122.87 21.93, 137.27 9.71, 141.33 -1.83 M111.97 34.56 C123.65 23.68, 133.34 10.72, 142.37 0.63 M115.74 35.02 C125.42 25.08, 133.47 14.85, 146.42 0.92 M117.44 35.85 C124.55 28.01, 130.84 21.18, 147.54 0.88 M124.8 34.48 C134.1 23.9, 143.57 9.58, 153.95 0.13 M122.64 35.81 C130.32 25.41, 139.38 16.3, 154.01 0.51 M126.04 34.31 C135.09 25.8, 146.14 15.84, 155.61 4.41 M128.03 35.81 C135.02 27.49, 141.14 19.45, 157.07 2.29 M132.23 35.13 C139.32 27.59, 147.64 22.18, 157.1 6.32 M132.86 35.06 C141.05 27, 147.02 19.43, 156.39 8.62 M137.73 34.77 C141.65 32.82, 146.39 28.21, 157.32 16.32 M138.15 35.96 C145.08 27.97, 150.44 21.47, 156 15.32 M143.62 35.43 C148.46 32, 150.95 27.91, 155.7 20.93 M144.47 35.09 C147.32 31.68, 150.78 28.02, 157.17 20.71 M149.87 36.12 C151.44 33.2, 152.56 31.66, 157.66 26.06 M148.63 35.11 C151.75 32.75, 153.11 30.87, 157.01 26.44" stroke="#228be6" stroke-width="0.5" fill="none"></path><path d="M1.85 -1.91 C56.65 0.99, 109.31 -0.21, 154.68 1.97 M-0.26 0.7 C54.81 1.94, 109.42 1.32, 153.46 -0.32 M153.28 0.93 C154.5 11.86, 155.57 23.87, 154.59 33.6 M153.6 -0.87 C155.11 9.48, 154.37 19.84, 155.3 35.67 M154.26 34.98 C115.99 35.59, 77.48 36.47, -1.82 33.69 M154.54 34.59 C112.12 33.36, 70.54 34.92, 0 35.64 M-1.05 36.67 C-2.14 26.12, 0.14 18.16, 0.61 1.12 M-0.34 35.14 C0.27 24.73, -0.62 16.66, 0.2 0.32" stroke="#1864ab" stroke-width="1" fill="none"></path></g><g stroke-linecap="round" transform="translate(286.79998779296875 499.1999053955078) rotate(0 48 15)"><path d="M-1.55 0.49 L96.06 1.23 L94.49 31.71 L1.7 31.38" stroke="none" stroke-width="0" fill="#82c91e"></path><path d="M-0.8 0.84 C17.32 -1.08, 36.76 -1.32, 97.28 -1.07 M0.14 -0.44 C34.3 -1.25, 67.33 -1.15, 95.7 -0.52 M97.78 0.05 C96.07 12.12, 97.57 21.85, 95.01 28.79 M96.13 0.34 C96.19 9.61, 95.07 17.01, 95.74 30.47 M96.12 28.16 C73.27 30.87, 47.27 30.88, -1.2 31.2 M95.03 29.76 C75.62 30.79, 55.2 31.36, -0.35 30.64 M0.99 28.01 C-0.68 19.57, 0.49 8.92, 0.73 -0.46 M-0.96 30.24 C0.24 19.44, -0.52 9.75, 0.85 -0.49" stroke="#5c940d" stroke-width="1" fill="none"></path></g><g transform="translate(227.79998779296875 406.3999481201172) rotate(0 72 12.5)"><text x="72" y="18" font-family="Virgil, Segoe UI Emoji" font-size="20px" fill="#1864ab" text-anchor="middle" style="white-space: pre;" direction="ltr">name</text></g><g transform="translate(230.5999755859375 452.39991760253906) rotate(0 72 12.5)"><text x="72" y="18" font-family="Virgil, Segoe UI Emoji" font-size="20px" fill="#1864ab" text-anchor="middle" style="white-space: pre;" direction="ltr">email id</text></g><g transform="translate(291.79998779296875 504.1999053955078) rotate(0 43 10)"><text x="43" y="14" font-family="Virgil, Segoe UI Emoji" font-size="16px" fill="#ffffff" text-anchor="middle" style="white-space: pre;" direction="ltr">take Test</text></g><g stroke-linecap="round" transform="translate(30.800018310546875 375.7998809814453) rotate(0 73.60000610351562 99.59999084472656)"><path d="M0 0 C0 0, 0 0, 0 0 M0 0 C0 0, 0 0, 0 0 M-0.91 6.97 C1.22 4.75, 3.67 1.92, 4.7 0.27 M-0.61 6.53 C0.77 4.47, 2.28 3.31, 5.03 0.51 M-0.87 13.01 C3.84 10.23, 4.73 7.25, 9.93 0.14 M0.19 12.14 C3.76 8.15, 7.53 2.97, 11 -0.46 M0.28 19.7 C3.27 15.74, 5.84 8.47, 14.22 -0.89 M-0.74 19.39 C3.7 13.65, 8.56 8.03, 15.72 0.66 M0.74 23.66 C5.41 19.68, 9.66 10.38, 21.08 -0.78 M0.21 23.17 C6.15 16.04, 11.9 9.25, 21.01 0.13 M-1.66 31.43 C5.35 24.04, 15.81 13.52, 25.34 -0.26 M0.19 31.37 C10.45 19.73, 19.84 6.76, 26.53 0.62 M-2.18 38.44 C7.49 26, 18.36 17.66, 31.29 1.29 M-0.76 36.87 C9 26.22, 18.78 15.67, 30.95 0.12 M1.07 42.07 C9.19 29.59, 18.27 20.42, 37.68 0.54 M0.61 42.09 C10.31 31.24, 20.63 17.62, 35.99 1.17 M-0.39 48.45 C7.61 39.77, 15.49 30.75, 43.39 -1.31 M0.02 48.41 C8.66 39.79, 18.26 29.07, 42.04 -1.05 M-0.41 53.79 C15.18 35.91, 33.36 18.72, 48.65 0.13 M0.59 55.16 C11.93 42.1, 23.7 28.38, 48.12 0.59 M-1 62.95 C18.84 37.84, 37.27 15.85, 52.71 0.9 M0.85 60.84 C16.57 41.39, 32.5 22.46, 53.47 -0.67 M0.7 66.71 C16.04 47.33, 32.39 29.52, 59.02 -0.67 M-0.39 68.1 C21.15 44.42, 41.05 20.85, 57.54 -0.21 M0.87 72.62 C22.36 47.54, 45.73 19.97, 64.93 0.54 M-0.72 73.17 C14.48 56.12, 28.77 38.78, 63.53 0.14 M-0.48 77.81 C15.32 61.44, 32.93 42.14, 66.88 -0.93 M0.18 80.37 C26.38 49.08, 54 17.42, 68.43 -0.63 M-0.55 84.28 C27.42 50.4, 55.4 20.42, 74.08 -0.61 M0.43 84.05 C23.14 59.79, 45.52 32.36, 74.55 -0.55 M1.53 91.5 C17.83 67.58, 40.39 42.83, 77.68 -1.52 M0.95 90.83 C29.14 56.7, 59.49 22.3, 79.55 0.6 M-0.35 99.68 C16.83 75.5, 37.35 54.99, 84.51 -1.61 M-0.64 97.56 C34.54 58.78, 68.75 19.21, 85.97 -0.52 M-0.76 102.6 C20.01 81.19, 42.33 55.02, 90.21 0.82 M0.27 103.78 C22.71 78.39, 42.56 54.96, 89.25 0.43 M1.7 110.44 C31.11 73.45, 62.92 35.76, 96.95 -0.36 M0.65 109.21 C25.26 79.85, 52.06 49.49, 95.3 -0.36 M1.47 115.07 C28.67 85.37, 54.06 54.54, 102.6 -0.5 M0.6 114.68 C32.04 80.84, 62.26 46.27, 100.46 0.45 M-0.8 120.62 C25.06 96.56, 46.38 68.56, 106.44 0.38 M-0.5 121.42 C24.88 93, 49.96 65.17, 107.12 -0.5 M-1.24 128.8 C32.53 92.8, 65.35 56.15, 110.33 0.12 M-1.2 127.93 C28.91 96.55, 56.92 63.61, 111.67 -0.03 M-0.26 133.68 C37.18 93.48, 70.9 57.68, 115.73 -0.23 M-0.63 133.54 C30.88 100.8, 62.39 65.11, 115.44 0.56 M-0.08 138.55 C46.42 87.23, 88.9 34.44, 120.21 -1.6 M-0.21 140.82 C45.41 88.68, 90.96 36.22, 121.97 0.94 M2.28 147.21 C41.36 95.21, 86 43.57, 127.87 1.88 M0.25 145.58 C40.77 98.86, 80.37 52.83, 127.32 0.24 M-1.62 152.52 C38.94 109.87, 75.33 67.52, 132.43 -1.59 M-0.37 153.01 C32.66 114.53, 63.34 77.84, 132.05 -0.92 M-1.4 159.64 C41.33 111.33, 82.54 64.64, 136.44 1.95 M-0.82 158.09 C29.42 125.78, 59.22 91.09, 137.88 -0.53 M-0.19 163.47 C46.8 112.72, 92.87 60.23, 142.54 1.44 M0.84 164.82 C39.6 118.21, 79.54 72.67, 143.02 0.34 M1 169.87 C41.57 123.52, 80.03 76.34, 149.24 -1.23 M-0.54 171.53 C50.33 114.09, 100.4 57.26, 148.14 0.22 M1.06 174.93 C35.56 132.67, 72.63 91.31, 149.05 5.84 M-0.21 176.52 C31.2 141.27, 62.78 105.07, 147.89 6.06 M-1.02 182.05 C46.68 130.2, 89.9 82.24, 148.71 14.55 M0.19 183.25 C50.73 124.73, 100.99 67.53, 147.78 13.04 M-1.14 188.41 C59.4 121.09, 116.29 56.01, 146.57 17.4 M-0.77 188.43 C59.63 120.4, 118.88 52.89, 147.45 18.78 M-0.28 194.65 C31.87 160.14, 62.07 120.78, 149.34 23.8 M-0.05 195.59 C35.06 156.14, 70.39 115.34, 148.63 25.75 M2.07 200.93 C48.96 146.94, 97.03 91.94, 147.87 31.26 M0.89 200.65 C44.39 150.15, 86.95 100.2, 148.86 30.05 M7.13 199.47 C57.87 140.65, 108.86 82.9, 146.57 37.02 M6.27 200.37 C51.43 147.84, 97.49 95.83, 148.45 36.33 M10.63 198.34 C65.42 136.28, 117.28 78.89, 146.14 43.61 M11.19 200.49 C64.96 139.01, 117.4 76.72, 147.62 43.18 M17.3 198.47 C57.83 156.23, 95.75 108.1, 148.91 49.51 M16.54 199.99 C50.1 164.22, 79.8 127.32, 148.25 49.05 M24.26 198.33 C69.99 144.34, 118.48 90.88, 148.26 55.32 M22.91 199.25 C58 158.61, 93.88 119.7, 147.74 55.53 M27.67 201.32 C62.84 160.74, 97.68 120.18, 147.66 60.87 M28.05 200.42 C65.47 156.37, 103.58 113.91, 147.31 60.48 M33.83 199.17 C62.27 167.65, 93.15 133.38, 147.65 68.18 M32.47 198.97 C76.98 150.26, 120.48 99.09, 148.39 67.22 M39.92 199.34 C61.97 174.54, 82.38 147.06, 146.16 74.54 M37.56 199.14 C65.04 168.91, 90.73 139.61, 147.34 73.56 M43.14 202.11 C62.15 173.15, 87.8 149.37, 147.05 79.36 M42.43 200.85 C66.91 172.26, 91.02 145.36, 148.84 79.2 M49.14 199.37 C71.11 175.34, 93.26 149.66, 146.65 85.02 M49.25 199.19 C85.29 158.89, 120.77 118.9, 148.13 86.25 M54.48 199.48 C74.56 174.9, 95.08 152.33, 148.71 92.14 M53.5 200.9 C87.7 160.56, 122.39 119.36, 148.95 91.15 M57.7 198.57 C85.84 168.98, 113.54 137.09, 147.66 96.19 M59.91 200.32 C77.15 180.26, 96.05 158.57, 148.53 98.93 M62.49 201.06 C91.36 168.1, 117.96 136.57, 147.58 102.74 M63.47 199.59 C88.67 174.27, 110.96 148.14, 147.5 105.16 M69.34 198.27 C98.34 167.4, 129.68 130.92, 148.71 108.33 M69.93 199.93 C98.26 167.32, 126.69 135.05, 148.16 110.42 M74.81 200.98 C98.8 174.75, 120.38 147.38, 147.91 115.25 M74.88 199.79 C92.54 180.15, 110.74 159.75, 147.83 115.76 M79.13 197.96 C100.63 174.05, 126.01 149.46, 147.67 120.88 M80.25 200.1 C108.44 169.42, 133.97 139.12, 147.69 121.69 M85.44 200.56 C109.46 171.61, 134.71 145.08, 149.33 128.2 M85.36 200.53 C101.2 182.07, 115.91 164.88, 148.87 129.38 M91.47 201.28 C113.74 176.59, 134.33 153.49, 146.09 135.18 M91.41 200.6 C108.01 179.57, 126.23 159.81, 147.23 135.65 M96.71 198.28 C115.89 178.93, 137.38 154.39, 147.48 141.51 M96.59 200.03 C113.19 179.01, 131.86 158.63, 148.78 140.39 M102.12 198.02 C117.06 183.55, 131.59 169.86, 145.84 145.48 M102.52 199.84 C115.4 183.81, 130.82 167.24, 147.92 147.11 M105.31 199.76 C122.7 182.45, 136.94 166.61, 147.33 151.25 M107.35 200.68 C115.94 189.77, 125.83 176.86, 147.33 152.83 M112.2 198.15 C122.31 187.58, 130 175.87, 147.16 157.44 M112.27 199.93 C121.98 189.64, 130.97 179.1, 147.03 158.34 M116.25 199.78 C127.54 189.56, 136.03 178.2, 148.56 164.42 M116.5 200.03 C126.32 190.82, 135.87 179.2, 148.19 166.15 M122.13 201.76 C133.99 186.89, 142.79 178.92, 149.29 171.12 M123.91 199.63 C133.32 188.82, 140.92 178.26, 147.53 170.98 M128.91 200.28 C134.82 193.56, 142.15 185.22, 146.12 177.9 M127.96 199.82 C135.58 191.46, 143.76 182.44, 148.57 177.22 M133.72 201.13 C136.53 195.3, 143.46 187.51, 147.82 183.75 M134.3 199.38 C138.07 193.44, 144.36 188.06, 148.51 183.89 M138.91 200.28 C141.89 197.16, 143.16 194.97, 148.24 189.15 M138.05 200.7 C141.13 197.19, 142.5 195.84, 148.19 189.77 M144.31 199.46 C145.51 199.03, 146.57 197.9, 147.76 196.07 M144.51 199.86 C144.97 198.7, 145.99 198.17, 147.62 196.16 M0.24 199.41 C0.24 199.41, 0.24 199.41, 0.24 199.41 M0.24 199.41 C0.24 199.41, 0.24 199.41, 0.24 199.41 M6.15 199.53 C5.02 197.83, 2.99 196.15, 0.51 194.26 M5.7 198.8 C4.01 197.12, 1.46 195.36, -0.11 193.95 M12.24 200.33 C8.33 196.03, 7.8 194.62, -0.18 188.24 M12.83 199.79 C9.13 197.04, 6.24 193.21, 0.56 188.57 M18.68 200.02 C11.78 193.75, 3.96 187.27, 0.02 182.67 M17.32 198.66 C14.26 195.6, 8.78 190.79, 0.39 183.03 M23.69 199.41 C16.83 195.17, 11.73 190.32, 1.38 176.19 M24.96 199.09 C18.09 193.21, 11.21 187.52, -0.05 177.18 M29.79 198.75 C21.38 189.12, 7.53 179.7, 0.7 173.71 M29.86 200.03 C24.01 194.04, 16.23 187.44, 0.37 173.15 M34.85 197.74 C23.61 189.41, 13.74 181.95, 1.2 165.65 M36.08 198.93 C23.59 187.98, 12.54 177.72, 0.33 168.33 M40.89 198.27 C31.84 189.6, 22.43 183.34, -1.14 161.13 M43.28 199.08 C32.57 191.39, 22.55 182.82, 0.35 162.31 M49.14 198.45 C35.24 188.24, 23.8 178.27, -1.1 157.79 M47.74 199.2 C33.62 185.63, 17.56 171.43, 0.16 157.36 M56.59 198.41 C41.76 188.39, 29.02 177.85, -1.85 151.09 M55.65 199.94 C39.15 186.02, 25.65 173.54, -1.13 151.38 M63.09 198.25 C38.98 177.77, 14.97 159.76, 1.56 148.11 M62.16 199.49 C42.61 184.2, 24.08 166.36, 0.38 146.37 M68.09 200.55 C45.68 181.05, 24.76 163.88, 0.56 140.9 M66.86 198.75 C47.24 181.13, 27.78 165.76, -0.45 141.4 M73.31 198.99 C54.95 181.39, 35.48 167.05, 1.59 136.25 M72.39 199.58 C49.06 177.2, 23.75 156.18, -0.46 135.1 M80.67 198.86 C48.38 170.5, 13.65 142.75, 0.43 129.03 M79.14 199.99 C54.1 176.38, 26.75 153.35, 0.07 130.6 M87 197.68 C57.41 172.52, 28.92 149.83, -1.25 124 M85.82 198.42 C68.52 183.7, 49.25 167.17, 0.74 125.99 M92.72 199.69 C56.13 169.58, 19.37 137.25, -0.81 121.76 M91.01 198.83 C55.67 167.75, 19.06 137.23, -0.02 120 M96.99 197.83 C58.43 166.63, 22.28 133.11, -1.87 113.32 M98.16 198.44 C70.59 176.42, 43.06 151.52, 0.66 115.12 M102.21 199.54 C70.76 169.86, 41.56 144.4, 0.35 108.57 M102.87 200.09 C68.91 171.03, 34.08 139.3, 0.61 109.85 M109.16 200.74 C72.85 167.67, 32.77 132.57, 0.19 104.31 M109.95 199.94 C77.03 169.62, 42.31 140.29, 0.58 103.28 M117.71 200.38 C71.43 157.99, 26.49 122.71, 0.04 100.04 M114.92 198.6 C71.68 160.36, 26.76 122.09, 0.64 98.55 M121.5 200.92 C83.12 163.37, 40.08 127.88, -1.29 93.25 M122.56 199.38 C78.09 160.7, 31.79 121.27, -0.66 92.89 M129.13 200.35 C85.37 159.49, 41.11 121.42, 1.96 87.27 M126.93 198.86 C95.14 170.04, 63.34 143.89, 0.09 89 M134.6 199.99 C93.53 162.19, 50.22 126.95, -1.17 82.56 M133.67 198.4 C85.27 156.92, 35.14 114.1, 0.37 83.07 M142.49 200.42 C93.22 158.63, 46.45 116.97, 0.17 76.51 M140.02 198.71 C85.33 152.45, 31.61 104.87, 0.04 78.26 M146.65 198.07 C112.14 168.44, 77.44 140.5, -0.98 70.8 M145.32 200.12 C102.81 161.21, 58.39 124.29, 0.65 72.61 M147.86 197.09 C90.79 142.84, 32.73 91.83, 1.07 67.17 M149.6 197.05 C99.07 153.4, 48.55 108.21, -0.34 66.58 M151.1 192.58 C110.79 158.96, 70.92 123.88, 1.09 62.73 M148.56 190.98 C119.45 165.25, 88.13 139.33, -0.23 60.97 M149.91 184.39 C89.67 133.23, 32.62 82.93, 1.4 57.81 M148.91 186.82 C90.44 134.19, 31.72 82.29, -0.81 56.39 M150.86 181.2 C94.47 131.3, 38.16 82.14, 0.22 51.23 M148.59 180.71 C117.26 151.07, 81.71 120.68, -1.11 51.27 M148.97 176.95 C107.42 137.41, 65.21 98.82, -1.76 44.15 M149.09 175.07 C98.48 132.22, 48.11 89.76, 0.94 45.27 M150.16 168.15 C97.21 122.3, 42.66 75.64, -1.08 39.35 M149.69 169.59 C99.94 127.19, 50.85 84.15, -0.26 39.31 M147.68 163.7 C108.73 131.3, 69.66 98.98, -0.98 33.06 M148.81 165.67 C105.71 128.82, 64.34 91.11, 0.32 34.98 M148.55 158.19 C121.07 134.52, 91.13 108.61, 1.02 30.29 M148.21 159.44 C91.16 108.21, 32.02 55.71, -0.37 28.57 M150.01 153.71 C92.8 107.84, 34.41 58.89, -0.47 24.58 M150.33 154.16 C111.67 120.52, 73.41 87.73, 0.81 24.46 M149.94 149.21 C105.99 113.9, 63.72 77.14, -2.27 17.4 M148.55 149.25 C102.28 107.16, 54.32 66.04, 0.45 19.19 M151.29 142.23 C96.28 98.42, 48.94 54.4, 1.86 13.9 M148.48 142.74 C119.29 117.52, 90.12 91.46, 0.95 12.81 M149.31 138.93 C113.88 107.67, 78.42 78.07, 2.35 6.88 M148.97 138.86 C102.53 98.74, 56.79 56.75, 0.44 9.63 M148.18 132.63 C98.01 91.49, 50.05 47.46, 0.5 1.35 M149.66 133.29 C93.33 84.26, 38.65 36.19, -0.61 2.31 M151.75 128.28 C112.34 94.57, 76.78 62.41, 1.99 -2.28 M149.52 127.29 C116.27 97.22, 84.52 69.4, 0.87 -2.25 M148.68 122.47 C95.2 74.55, 41.49 29.55, 7.77 1.01 M148.85 122.36 C95.82 76.23, 45.29 31.96, 7.37 -0.03 M150.94 119.26 C98.84 75.26, 52.2 35.85, 13.2 -0.4 M149.61 117.7 C97.66 72.41, 44.85 26.16, 12.7 -0.47 M150.16 113.45 C103.52 71.04, 56.06 31.38, 17.82 -1.11 M148.62 112.17 C118.18 81.88, 83.33 54.28, 19.68 -1.22 M148.15 106.43 C106.39 67.42, 58.98 28.78, 25.24 -3.33 M149.96 105.77 C104.77 65.12, 58.01 26.06, 24.81 -2.04 M149.29 101.44 C122.14 78.11, 97.41 51.51, 29.61 -1.11 M150.11 101.62 C117.81 73.68, 83.9 46.12, 30.65 -1.39 M151 95.45 C110.47 64.51, 71.37 31.4, 36.77 -0.29 M150.38 95.38 C120.87 70.68, 91.63 45.74, 37.74 -1.79 M148.12 90.44 C108.15 57.24, 64.1 19.12, 42.97 -2.04 M150.04 91.27 C114.69 60.89, 80.52 29.75, 43.22 -1.59 M151.44 85.19 C119.31 59.51, 87.67 29.99, 51.55 -0.28 M148.75 85.53 C112.5 54.73, 75.85 22.76, 50.33 -1.86 M148.04 78.63 C123.25 53.56, 93.79 32.68, 56.09 0.24 M149.71 80.36 C121.7 55.67, 93.64 29.53, 55.42 -0.68 M147.79 73.64 C120.06 49.38, 90.82 22.92, 60.91 -2.19 M150.04 75.43 C124.25 51.52, 97.5 29.1, 61.28 -0.75 M147.77 68.35 C128.38 50.71, 107.32 32.33, 68.23 -0.34 M149.99 69.81 C123.72 46.8, 97.46 24.85, 68.11 -1.69 M150.69 63.96 C129.5 48.52, 112.06 31.86, 74.82 0.58 M149.28 63.46 C128.14 44.82, 105.04 26.02, 73.1 -0.93 M149.37 60.06 C130.68 44.07, 111.9 26.5, 78.76 -0.65 M148.33 59.19 C129.51 40.48, 109.74 24.28, 80.95 -1.46 M149.13 54.45 C126.75 34.44, 100.99 12.42, 84.56 -1.2 M148.58 54.14 C130.77 37.11, 112.35 21.45, 85.89 -1.22 M148.27 46.42 C127.36 29.14, 109.95 11.86, 93.65 -2.44 M149.76 47.76 C126.52 30.01, 105.46 9.5, 91.96 -1.67 M148.46 44.59 C135.1 31.04, 119.66 14.72, 97.51 -1.95 M150.16 43.21 C134.31 30.69, 119.38 17.1, 99.07 -1.11 M147.21 38.22 C129.79 24.05, 114.18 8.44, 104.44 -0.97 M149.9 37.43 C133.64 23.1, 117.96 8.96, 105.48 -0.51 M148.33 33.01 C140.58 24.37, 134.19 19.02, 112.15 -1.9 M149.27 32.54 C135.93 20.99, 121.97 8.51, 111.39 -0.35 M151.06 27.07 C137.53 14.71, 124.29 6.14, 115.03 -2.32 M150.69 26.48 C142.15 21.23, 135.14 14.82, 115.92 -0.97 M148.79 23.48 C143.19 14.1, 131.67 7.91, 124.55 -1.16 M149.28 21.2 C138.79 12.48, 129.13 3.18, 122.43 -2.1 M149.76 16.78 C143.82 12.28, 138.36 6.87, 128.43 -0.77 M150.39 15.85 C143.26 10.79, 137.87 5.01, 129.52 -1.24 M148.26 10.95 C142.47 5.44, 139.87 2.12, 135.35 -0.4 M148.64 10.43 C146.21 8.92, 141.95 5.29, 134.61 -0.52 M149.24 5.62 C148.06 3.19, 144.9 1.67, 141.59 -0.2 M149.38 6.11 C147.31 4.05, 144.86 2, 141.95 -0.67" stroke="#15aabf" stroke-width="0.5" fill="none"></path><path d="M0.95 0.55 C50.46 -1.08, 98.36 -0.69, 146.87 1.33 M-0.63 0.52 C46.29 1.31, 90.66 1.63, 147 0.18 M145.83 1.08 C148.54 62, 148.19 120.63, 145.7 200.86 M146.86 0.13 C145.84 44.01, 147.08 87.14, 147.95 199.75 M148.01 197.87 C114.41 199.23, 80.84 199.62, 0.19 198.85 M146.93 199.01 C106.31 198.78, 67.2 197.28, -0.09 198.77 M-0.19 198.82 C2.76 141.15, 0.15 85.18, 0.37 -1.86 M0.49 199.95 C1.93 125.31, 2.41 49.96, 0.42 0.53" stroke="#000000" stroke-width="1" fill="none"></path></g><g transform="translate(75.60000610351562 448.79981994628906) rotate(0 23 30)"><text x="0" y="14" font-family="Virgil, Segoe UI Emoji" font-size="16px" fill="#000000" text-anchor="start" style="white-space: pre;" direction="ltr">Test</text><text x="0" y="34" font-family="Virgil, Segoe UI Emoji" font-size="16px" fill="#000000" text-anchor="start" style="white-space: pre;" direction="ltr">info</text><text x="0" y="54" font-family="Virgil, Segoe UI Emoji" font-size="16px" fill="#000000" text-anchor="start" style="white-space: pre;" direction="ltr">points</text></g><g transform="translate(126.79998779296875 262.9999542236328) rotate(0 65.5 10)"><text x="0" y="14" font-family="Virgil, Segoe UI Emoji" font-size="16px" fill="#000000" text-anchor="start" style="white-space: pre;" direction="ltr">Step 1 : Screen 1</text></g><g transform="translate(572 264.19993591308594) rotate(0 72 10)"><text x="0" y="14" font-family="Virgil, Segoe UI Emoji" font-size="16px" fill="#000000" text-anchor="start" style="white-space: pre;" direction="ltr">Step 3 : Screen 2</text></g><g stroke-linecap="round" transform="translate(680.2001342773438 426.19996643066406) rotate(0 58.5 24)"><path d="M-1.59 0.95 L116.18 -1.87 L117.98 46.88 L1.83 47.28" stroke="none" stroke-width="0" fill="#15aabf"></path><path d="M0.05 0.53 C23.77 1, 46.56 2.32, 118.68 -0.13 M-0.6 -0.7 C29.25 -0.53, 57.7 0.77, 117.7 -0.96 M118.59 1.19 C115.42 15.67, 115.71 28.59, 115.24 49.76 M116.79 -0.87 C117.49 13.59, 116.63 25.61, 116.56 48.23 M116.88 49.2 C70.86 48.15, 27.66 48.66, 0.95 48.08 M117.16 48.63 C74.03 48.38, 32.89 48.47, -0.7 48.61 M-1.01 46.42 C-0.26 30.6, -0.12 11.22, 0.53 1.68 M0.8 48.26 C-0.36 34.83, -0.67 23.55, 0.22 0.52" stroke="#0b7285" stroke-width="1" fill="none"></path></g><g stroke-linecap="round" transform="translate(518.2000122070312 424.20005798339844) rotate(0 58.5 24)"><path d="M1.28 0.57 L117.26 0.18 L118.21 46.37 L-1.26 46.45" stroke="none" stroke-width="0" fill="#228be6"></path><path d="M-1 1.88 C36.29 0.03, 72.63 0.85, 116.27 -0.6 M-0.19 -0.49 C35.8 -0.52, 69.65 -0.58, 117.54 0 M118.59 1.34 C117.13 12.85, 117.63 26.25, 118.7 48.64 M117.1 0.1 C117.31 17.51, 117.5 37.13, 116.28 47.39 M118.33 49.85 C81.14 45.9, 46.92 45.53, -0.84 49.65 M117.44 48.38 C79.41 48.57, 43.37 47.44, -0.92 47.38 M-0.47 48.09 C0.88 31.66, 0.66 15.09, 1.34 -0.41 M-0.77 48.12 C0.24 28.84, 0.18 10.11, -0.44 0.36" stroke="#ffff" stroke-width="1" fill="none"></path></g><g transform="translate(685.2001342773438 440.19996643066406) rotate(0 53.5 10)"><text x="53.5" y="14" font-family="Virgil, Segoe UI Emoji" font-size="16px" fill="#ffff" text-anchor="middle" style="white-space: pre;" direction="ltr">Final Submit</text></g><g transform="translate(523.2000122070312 438.20005798339844) rotate(0 53.5 10)"><text x="53.5" y="14" font-family="Virgil, Segoe UI Emoji" font-size="16px" fill="#ffff" text-anchor="middle" style="white-space: pre;" direction="ltr">Go Back</text></g><g stroke-linecap="round" transform="translate(22.799957275390625 320.59999084472656) rotate(0 192.8000030517578 24)"><path d="M1.08 -0.81 L384.56 0.02 L385.94 49.49 L-1.83 49.99" stroke="none" stroke-width="0" fill="#ced4da"></path><path d="M0.87 -1.06 C98.57 0.31, 195.7 0.68, 385.98 0.17 M0.25 -0.29 C139.94 0.89, 281.2 0.7, 385.44 0.04 M384.58 1.08 C385.22 11.15, 385.76 25.12, 383.87 47.22 M385.66 0.37 C384.65 17.37, 385.89 34.8, 385.55 47.4 M386.39 48.17 C262.09 47.47, 136.47 48.7, -0.15 47.59 M385.77 48.5 C274.15 49.92, 163.98 49.32, 0.15 47.8 M1.77 48.36 C-0.59 34.8, -1.59 22.89, 1.54 0.63 M-0.66 47.49 C-0.05 30.96, -0.44 13.24, -0.37 -0.5" stroke="#ffffff" stroke-width="1" fill="none"></path></g><g stroke-linecap="round" transform="translate(469.5999450683594 318.59999084472656) rotate(0 192.8000030517578 24)"><path d="M0.29 0.9 L387.25 -0.65 L386.76 48.66 L-1.64 49" stroke="none" stroke-width="0" fill="#ced4da"></path><path d="M-0.32 -0.48 C78.65 2.32, 158.68 2.05, 385.71 0.07 M0.45 -0.56 C97.92 -0.97, 196.31 -1.57, 385.61 -0.28 M385.11 1.83 C385.04 10.39, 386.08 21.35, 383.7 46.79 M386.39 0.99 C384.87 13.65, 384.76 27.21, 385.29 47.28 M385.8 48.97 C247.86 46.25, 113.26 46.23, 0.71 47.94 M385.79 47.57 C231.08 48.52, 77.2 48.67, 0.58 48.11 M1.37 47.77 C0.25 36.44, -0.25 26.39, 0.93 -0.6 M-0.72 48.37 C1.08 30.13, -0.05 9.99, 0.16 -0.88" stroke="#ffffff" stroke-width="1" fill="none"></path></g><g transform="translate(50.79998779296875 336.7999725341797) rotate(0 72.5 10)"><text x="0" y="14" font-family="Virgil, Segoe UI Emoji" font-size="16px" fill="#000000" text-anchor="start" style="white-space: pre;" direction="ltr">Organisation Name</text></g><g transform="translate(497.5999755859375 334.7999725341797) rotate(0 72.5 10)"><text x="0" y="14" font-family="Virgil, Segoe UI Emoji" font-size="16px" fill="#000000" text-anchor="start" style="white-space: pre;" direction="ltr">Organisation Name</text></g></svg>